<svg xmlns="http://www.w3.org/2000/svg" viewBox="0 0 100 100" width="100" height="100">
  <defs>
    <!-- Gradient definitions for colorful elements -->
    <linearGradient id="bgGradient" x1="0%" y1="0%" x2="100%" y2="100%">
      <stop offset="0%" style="stop-color:#667eea;stop-opacity:1" />
      <stop offset="50%" style="stop-color:#764ba2;stop-opacity:1" />
      <stop offset="100%" style="stop-color:#f093fb;stop-opacity:1" />
    </linearGradient>
    
    <linearGradient id="cardGradient1" x1="0%" y1="0%" x2="100%" y2="100%">
      <stop offset="0%" style="stop-color:#ff6b6b;stop-opacity:1" />
      <stop offset="100%" style="stop-color:#ffa726;stop-opacity:1" />
    </linearGradient>
    
    <linearGradient id="cardGradient2" x1="0%" y1="0%" x2="100%" y2="100%">
      <stop offset="0%" style="stop-color:#4ecdc4;stop-opacity:1" />
      <stop offset="100%" style="stop-color:#44a08d;stop-opacity:1" />
    </linearGradient>
    
    <linearGradient id="cardGradient3" x1="0%" y1="0%" x2="100%" y2="100%">
      <stop offset="0%" style="stop-color:#a8edea;stop-opacity:1" />
      <stop offset="100%" style="stop-color:#fed6e3;stop-opacity:1" />
    </linearGradient>
    
    <linearGradient id="cardGradient4" x1="0%" y1="0%" x2="100%" y2="100%">
      <stop offset="0%" style="stop-color:#ffecd2;stop-opacity:1" />
      <stop offset="100%" style="stop-color:#fcb69f;stop-opacity:1" />
    </linearGradient>
    
    <linearGradient id="cardGradient5" x1="0%" y1="0%" x2="100%" y2="100%">
      <stop offset="0%" style="stop-color:#a1c4fd;stop-opacity:1" />
      <stop offset="100%" style="stop-color:#c2e9fb;stop-opacity:1" />
    </linearGradient>
    
    <linearGradient id="cardGradient6" x1="0%" y1="0%" x2="100%" y2="100%">
      <stop offset="0%" style="stop-color:#ff9a9e;stop-opacity:1" />
      <stop offset="100%" style="stop-color:#fecfef;stop-opacity:1" />
    </linearGradient>
    
    <!-- Shadow filter -->
    <filter id="shadow" x="-50%" y="-50%" width="200%" height="200%">
      <feDropShadow dx="2" dy="2" stdDeviation="3" flood-color="#000000" flood-opacity="0.2"/>
    </filter>
  </defs>
  
  <!-- Background circle with gradient -->
  <circle cx="50" cy="50" r="48" fill="url(#bgGradient)" stroke="#ffffff" stroke-width="2"/>
  
  <!-- Dashboard grid background -->
  <rect x="15" y="15" width="70" height="70" rx="8" fill="#ffffff" fill-opacity="0.1" stroke="#ffffff" stroke-width="1" stroke-opacity="0.3"/>
  
  <!-- Colorful app cards arranged in a grid -->
  <!-- Row 1 -->
  <rect x="20" y="20" width="18" height="18" rx="3" fill="url(#cardGradient1)" filter="url(#shadow)"/>
  <rect x="41" y="20" width="18" height="18" rx="3" fill="url(#cardGradient2)" filter="url(#shadow)"/>
  <rect x="62" y="20" width="18" height="18" rx="3" fill="url(#cardGradient3)" filter="url(#shadow)"/>
  
  <!-- Row 2 -->
  <rect x="20" y="41" width="18" height="18" rx="3" fill="url(#cardGradient4)" filter="url(#shadow)"/>
  <rect x="41" y="41" width="18" height="18" rx="3" fill="url(#cardGradient5)" filter="url(#shadow)"/>
  <rect x="62" y="41" width="18" height="18" rx="3" fill="url(#cardGradient6)" filter="url(#shadow)"/>
  
  <!-- Row 3 -->
  <rect x="20" y="62" width="18" height="18" rx="3" fill="url(#cardGradient1)" filter="url(#shadow)"/>
  <rect x="41" y="62" width="18" height="18" rx="3" fill="url(#cardGradient2)" filter="url(#shadow)"/>
  <rect x="62" y="62" width="18" height="18" rx="3" fill="url(#cardGradient3)" filter="url(#shadow)"/>
  
  <!-- Add button (plus sign) -->
  <circle cx="70" cy="70" r="8" fill="#ffffff" fill-opacity="0.9" stroke="#667eea" stroke-width="2"/>
  <line x1="66" y1="70" x2="74" y2="70" stroke="#667eea" stroke-width="2" stroke-linecap="round"/>
  <line x1="70" y1="66" x2="70" y2="74" stroke="#667eea" stroke-width="2" stroke-linecap="round"/>
  
  <!-- Decorative elements -->
  <circle cx="25" cy="25" r="2" fill="#ffffff" fill-opacity="0.6"/>
  <circle cx="75" cy="25" r="2" fill="#ffffff" fill-opacity="0.6"/>
  <circle cx="25" cy="75" r="2" fill="#ffffff" fill-opacity="0.6"/>
  <circle cx="75" cy="75" r="2" fill="#ffffff" fill-opacity="0.6"/>
</svg>